<?xml version="1.0" standalone="no"?>
<!DOCTYPE svg PUBLIC "-//W3C//DTD SVG 20010904//EN"
 "http://www.w3.org/TR/2001/REC-SVG-20010904/DTD/svg10.dtd">
<svg version="1.0" xmlns="http://www.w3.org/2000/svg"
 width="30.000000pt" height="30.000000pt" viewBox="0 0 30.000000 30.000000"
 preserveAspectRatio="xMidYMid meet">

<g transform="translate(0.000000,30.000000) scale(0.100000,-0.100000)"
fill="#000000" stroke="none">
<path d="M135 265 c-5 -2 -27 -6 -47 -10 -72 -12 -39 -25 62 -25 101 0 134 13
63 25 -21 4 -45 8 -53 10 -8 2 -19 2 -25 0z"/>
<path d="M67 148 c10 -104 13 -108 83 -108 70 0 73 4 83 108 l7 62 -90 0 -90
0 7 -62z"/>
</g>
</svg>
